<?xml version="1.0" encoding="UTF-8"?>
<svg id="Layer_2" data-name="Layer 2" xmlns="http://www.w3.org/2000/svg" viewBox="0 0 564.89 582.33">
  <defs>
    <style>
      .cls-1 {
        font-family: Helvetica-Light, 'Helvetica Light';
        font-size: 26.95px;
        font-weight: 300;
        letter-spacing: .1em;
      }

      .cls-1, .cls-2 {
        fill: #dec58e;
      }

      .cls-3, .cls-4 {
        fill: #263e4b;
      }

      .cls-5 {
        fill: #aa9d7a;
      }

      .cls-4 {
        font-family: EditorialToday-Regular, 'Editorial Today';
        font-size: 159.21px;
        letter-spacing: .1em;
      }

      .cls-6 {
        fill: none;
        stroke: #aa9d7a;
        stroke-miterlimit: 10;
      }
    </style>
  </defs>
  <g id="Layer_1-2" data-name="Layer 1">
    <g>
      <path class="cls-5" d="M438.8,190.88c-.01,22.99-.14,45.98.04,68.97.11,14.68-6.07,25.45-18.75,32.76-39.85,22.97-79.66,46.02-119.5,69.01-12.97,7.48-25.93,7.35-38.89-.15-39.18-22.69-78.3-45.5-117.64-67.92-13.49-7.69-20.58-18.78-20.64-34.08-.17-46.33-.23-92.67-.02-139,.07-14.92,7.46-25.63,20.47-33.07,38.99-22.3,77.84-44.85,116.67-67.45,14.09-8.2,27.77-8.03,41.81.15,38.51,22.42,77.05,44.79,115.75,66.87,14.62,8.34,21.3,20.22,20.86,37.1-.58,22.26-.14,44.54-.15,66.81Z"/>
      <text class="cls-4" transform="translate(0 526.14)"><tspan x="0" y="0">QBEES</tspan></text>
      <path class="cls-3" d="M200.11,299.14c-8.29,0-16.59-.11-24.88.05-3.98.07-5.81-1.32-5.77-5.51.17-16.9-.67-33.86.42-50.69,1.71-26.41,23.65-46.6,50.1-47.32,9.88-.27,19.77.01,29.66-.12,20.42-.27,34.12-13.87,34.48-34.26.17-9.57-.05-19.14.12-28.7.52-28.72,22.22-50.89,50.86-51.6,15.3-.38,30.62.03,45.92-.16,4.77-.06,6.9,1.33,6.81,6.52-.29,15.94.36,31.91-.33,47.83-1.21,27.79-23.29,48.8-51.15,49.28-11.8.2-23.6.02-35.4.08-2.54.01-5.42-.39-7.5.66-1.85.94-3.65,3.55-3.85,5.59-.14,1.36,2.3,3.61,4.06,4.35,1.92.81,4.38.43,6.61.43,11.8.03,23.6-.12,35.4.06,29.24.44,51.47,22.34,52.03,51.45.29,14.98-.13,29.98.15,44.97.1,5.38-1.71,7.33-7.12,7.24-15.62-.27-31.27.34-46.88-.29-28.24-1.14-49.27-23.36-49.62-51.79-.14-11.8-.01-23.6-.07-35.4-.01-2.21.37-4.85-.66-6.52-1.14-1.83-3.64-3.59-5.7-3.8-1.33-.13-3.55,2.33-4.28,4.08-.81,1.93-.46,4.38-.47,6.61-.03,11.8.11,23.6-.03,35.4-.34,28.52-22.43,50.89-50.91,51.57-7.33.17-14.67.03-22.01.03,0,0,0-.02,0-.02Z"/>
      <text class="cls-1" transform="translate(217.56 575.6)"><tspan x="0" y="0">CLEANING</tspan></text>
      <path class="cls-6" d="M452.43,191c-.01,24.74-.15,49.49.04,74.23.12,15.8-6.53,27.4-20.18,35.26-42.9,24.72-85.74,49.53-128.62,74.27-13.96,8.05-27.91,7.91-41.86-.16-42.17-24.42-84.27-48.97-126.61-73.1-14.51-8.27-22.15-20.22-22.21-36.68-.18-49.87-.24-99.73-.03-149.6.07-16.06,8.03-27.58,22.04-35.6,41.96-24.01,83.78-48.27,125.57-72.59,15.16-8.83,29.89-8.64,45,.16,41.44,24.13,82.92,48.21,124.58,71.97,15.74,8.98,22.92,21.76,22.45,39.93-.62,23.95-.15,47.94-.17,71.91Z"/>
      <g>
        <path class="cls-2" d="M241.83,143.66l.65.65c12.35-10.06,22.63-1.92,25.84,5.16,1.61,3.53,5.55,21.97,1.93,21.97h-18.73c-4.85,0-11.62-9.48-12.26-9.04-.25.17-3.87,9.04-10.99,9.04h-37.88c-2.75,0-4.4-3.09-2.84-5.36,2.99-4.34,7.84-8.07,12.38-8.77,2.28-.35,10.91-.07,10.91-.07l.1-7.2c.38-2.12-1.08-3.14-3.23-3.14h-11.12c-2.1,0-4.19-.49-6.04-1.48-.99-.53-1.73-1.05-2.13-1.29-12.61-7.56-9.98-26.78,3-31.5,1.64-.6,5-.45,5.21-.61.32-.26-2.97-5.69-3.51-7.45-9.21-29.77,30.76-43.76,44.66-20.12,1.04,1.77,3.95,7.8,4.07,12.73v46.5ZM234.08,135.27c1.38-1.66,2.39-37.87,0-43.27-11.14-25.22-42.43-7.64-33.83,11.87,3.2,7.27,22.29,23.37,29.32,28.8.72.56,4.26,2.89,4.51,2.59ZM219.38,140.43c3.06,0,4.58-3.69,2.42-5.85-5.19-5.21-11.14-10.95-16.2-14.11-12.39-7.72-24.36,6.56-16.05,16.06.34.39,1.5,1.37,2.88,2.26,1.68,1.08,3.64,1.65,5.63,1.65h21.31Z"/>
        <path class="cls-2" d="M221.16,185.53v4.09c0,2.79-2.26,5.06-5.06,5.06h-29.07c-2.62,0-4.8-1.99-5.04-4.6l-.37-4.09c-.27-2.96,2.06-5.52,5.04-5.52h29.45c2.79,0,5.06,2.26,5.06,5.06Z"/>
        <path class="cls-2" d="M219.73,207.11l1.05,7c.35,2.36-1.43,4.51-3.81,4.57-4.09.1-9.86-.93-11.37-1.34-4.16-1.13-8.74-3.5-12.16-6.77-2.59-2.48-.82-6.85,2.76-6.85h19.59c1.97,0,3.64,1.44,3.93,3.39Z"/>
        <path class="cls-2" d="M264.09,138.6c2.9-3.35,5.81-6.69,8.71-10.04,1.88-2.17,3.66-4.42,5.67-6.46,1.31-1.33,2.48-1.15,3.75.1,1.28,1.26,1.35,2.4.21,3.78-.36.44-.79.85-1.25,1.19-5.51,4.03-11.04,8.05-16.56,12.07-.18-.21-.36-.43-.54-.64Z"/>
        <path class="cls-2" d="M262.72,135.85c-.86-7.48-1.73-14.59-2.46-21.7-.26-2.54.96-3.75,3.08-3.54,1.51.15,2.37.96,2.54,2.44.07.57.05,1.16-.03,1.72-.84,6.53-1.69,13.06-2.56,19.58-.05.39-.29.77-.58,1.5Z"/>
      </g>
    </g>
  </g>
</svg>